<svg xmlns="http://www.w3.org/2000/svg" width="6054" height="1633" viewBox="0 0 6054 1633">
  <g id="Group_50" data-name="Group 50" transform="translate(-7790 2868)">
    <path id="Path_50" data-name="Path 50" d="M635,387c-37-33-79-57-126-71a501.8,501.8,0,0,0-144-21,446.276,446.276,0,0,0-126,18q-61.5,18-108,54T56,457c-19,36-28,77-28,125,0,49,10,88,31,118a230.618,230.618,0,0,0,77,72,473.986,473.986,0,0,0,100,44c36,11,69,22,100,32,31,11,56,24,77,39,20,15,31,36,31,63,0,16-4,29-12,41s-18,21-31,29a175.409,175.409,0,0,1-44,17,197.25,197.25,0,0,1-48,6,209.069,209.069,0,0,1-94-22c-30-15-55-35-75-62L2,1111c42,39,88,67,137,85,49,17,102,26,159,26a497.807,497.807,0,0,0,130-17c41-12,77-29,108-54a254.141,254.141,0,0,0,74-91c18-37,27-79,27-128,0-51-10-93-30-123-20-31-45-55-75-73a408.167,408.167,0,0,0-98-42c-35-10-67-20-98-30q-45-15-75-36c-20-14-30-34-30-61q0-25.5,12-42c8-12,19-21,32-28s27-12,42-16c15-3,29-5,44-5,24,0,50,5,77,14,27,10,48,24,64,44L635,388ZM737,1483H924V1134h3c22,29,49,50,83,62s70,18,109,18c43,0,82-9,116-27a275.073,275.073,0,0,0,87-72c24-30,42-64,55-103s19-79,19-121q0-69-21-126t-60-99c-26-28-58-49-94-65-37-15-77-23-122-23a199.908,199.908,0,0,0-61,9c-19,6-37,13-53,22s-30,19-42,31c-12,11-22,22-29,33h-2V593H740v889ZM948,786c26-28,63-42,110-42s84,14,110,42,39,65,39,111-13,83-39,111-63,42-110,42-84-14-110-42-39-65-39-111S922,814,948,786Zm559,413h187V594H1507Zm17-719c21,21,47,32,77,32s55-11,77-32c21-21,32-47,32-77s-11-55-32-77c-21-21-47-32-77-32s-55,11-77,32c-21,21-32,47-32,77S1503,458,1524,480Zm762,179a218.643,218.643,0,0,0-103-62,425.847,425.847,0,0,0-121-17,359.383,359.383,0,0,0-93,12c-31,8-58,20-82,37s-43,38-57,64c-15,26-22,56-22,92,0,38,8,69,23,92s35,40,59,53c24,12,49,22,76,28s52,12,76,17,43,12,59,20c15,8,23,20,23,36,0,17-9,28-26,34s-37,9-59,9c-28,0-53-6-74-17s-40-28-58-49l-113,126c30,31,66,52,110,64a476.325,476.325,0,0,0,128,18,549.746,549.746,0,0,0,98-9,291.771,291.771,0,0,0,90-32c27-15,48-36,65-61s26-58,26-97c0-38-8-69-23-92a161.023,161.023,0,0,0-59-54c-24-13-49-23-76-29s-52-12-76-17a292.721,292.721,0,0,1-59-19c-15-7-23-18-23-33,0-18,7-31,22-39,15-7,30-11,46-11q67.5,0,108,51l115-113Zm887-341H2979V852c0,27-4,53-13,76s-21,43-37,60a173.61,173.61,0,0,1-56,40c-22,10-45,14-71,14a188.55,188.55,0,0,1-72-14c-22-10-41-23-57-40s-28-37-37-60-13-49-13-76V318H2429V860c0,52,8,100,24,145,16,44,39,82,70,115,31,32,70,58,116,76,47,18,100,27,162,27,61,0,114-9,161-27,46-18,85-44,116-76a307.2,307.2,0,0,0,70-115c16-44,24-92,24-145V318Zm118,882h187V899c0-20,1-39,4-57s8-35,16-49c8-15,19-26,34-35s34-13,59-13c22,0,38,5,49,15a87.885,87.885,0,0,1,24,36,163.454,163.454,0,0,1,9,45c1,16,1,29,1,40v320h187V881a218,218,0,0,1,6-52c4-17,10-31,19-44,9-12,20-22,35-29s33-11,54-11c31,0,52,10,64,31,12,20,18,45,18,73v352h187V844a478.4,478.4,0,0,0-11-103c-7-32-19-60-35-83-16-24-38-42-66-56s-62-21-103-21c-45,0-83,8-113,25-31,17-57,44-79,83-17-37-41-65-74-82s-70-26-113-26c-22,0-43,3-62,9s-36,13-51,22-28,19-39,31-19,23-25,35h-3V596H3291v604Z" transform="translate(7788 -2861)" fill="#f89a32"/>
    <path id="Path_51" data-name="Path 51" d="M4816,169v58l58-2h0l997-44V1340l58,2V121Z" transform="translate(7788 -2861)" fill="#f89a32"/>
    <path id="Path_52" data-name="Path 52" d="M4943,42v58l58-3h0l997-43V1213l58,3V-7h-1Z" transform="translate(7788 -2861)" fill="#f89a32"/>
    <path id="Path_53" data-name="Path 53" d="M5240,1155,5030,943h130V621h162V943h130l-211,212Zm562-906L4690,300V1626l187-198,926,42V249Z" transform="translate(7788 -2861)" fill="#f89a32"/>
  </g>
</svg>
