
        <svg xmlns="http://www.w3.org/2000/svg" xmlns:xlink="http://www.w3.org/1999/xlink" version="1.1" width="3153.846153846154" 
        height="1045.4957178228296" viewBox="0 0 3153.846153846154 1045.4957178228296">
			
			<g transform="scale(7.6923076923076925) translate(10, 10)">
				<defs id="SvgjsDefs2131"></defs><g id="SvgjsG2132" featureKey="symbolFeature-0" transform="matrix(1.1195501026687031,0,0,1.1195501026687031,16.455502897273213,14.910743570820904)" fill="#415f9d"><g xmlns="http://www.w3.org/2000/svg"><path d="M52.97,26.428c-7.903,0-14.331,6.429-14.331,14.33c0,7.903,6.428,14.331,14.331,14.331c7.901,0,14.33-6.428,14.33-14.331   C67.3,32.856,60.871,26.428,52.97,26.428z"></path><path d="M38.368,46.5c-0.233-0.593-0.436-1.202-0.599-1.828l-18.577,5.247c-1.249-3.026-4.224-5.155-7.698-5.155   c-4.601,0-8.328,3.728-8.328,8.326c0,4.599,3.728,8.328,8.328,8.328c4.599,0,8.326-3.729,8.326-8.328   c0-0.451-0.045-0.889-0.115-1.32L38.368,46.5z"></path><path d="M30.136,20.9c0.23-0.144,0.445-0.302,0.65-0.469l10.63,9.719c0.435-0.474,0.9-0.918,1.389-1.335l-10.721-9.801   c1.357-2.031,1.497-4.75,0.126-6.961c-1.87-3.016-5.83-3.946-8.846-2.076c-3.018,1.87-3.945,5.831-2.076,8.847   S27.119,22.771,30.136,20.9z"></path><path d="M64.758,30.416l11.468-8.525c1.736,1.72,4.377,2.373,6.811,1.447c3.315-1.265,4.98-4.977,3.717-8.292   c-1.265-3.317-4.977-4.981-8.294-3.718c-3.314,1.263-4.98,4.977-3.716,8.292c0.097,0.254,0.213,0.495,0.337,0.729l-11.69,8.69   C63.872,29.469,64.33,29.929,64.758,30.416z"></path><path d="M47.697,74.572c-0.396-0.215-0.804-0.385-1.215-0.53l4.023-17.785c-0.637-0.102-1.263-0.244-1.875-0.42L44.609,73.61   c-3.254-0.348-6.547,1.25-8.206,4.303c-2.194,4.041-0.699,9.097,3.341,11.293c4.042,2.196,9.098,0.7,11.293-3.341   C53.232,81.824,51.738,76.768,47.697,74.572z"></path><path d="M89.794,49.945c-2.887-2.062-6.901-1.394-8.962,1.495c-0.159,0.222-0.296,0.451-0.42,0.683l-13.218-4.748   c-0.275,0.591-0.585,1.16-0.93,1.708l13.496,4.849c-0.47,2.398,0.446,4.958,2.565,6.471c2.889,2.063,6.901,1.393,8.965-1.495   C93.354,56.02,92.683,52.007,89.794,49.945z"></path></g></g><g id="SvgjsG2133" featureKey="nameFeature-0" transform="matrix(1.4887970385442502,0,0,1.4887970385442502,134.4021231492719,8.288327550432726)" fill="#233b6e"><path d="M14.08 13.600000000000001 c2.72 0 4.76 0.76 6.12 2.24 c1.2 1.32 1.8 3.28 1.8 5.68 l0 10.6 c0 4.84 -2.8 7.88 -7.92 7.88 l-10 0 c-0.2 0 -0.32 -0.16 -0.32 -0.36 l0 -25.68 c0 -0.2 0.12 -0.36 0.32 -0.36 l10 0 z M16.76 30.92 l0 -8.2 c0 -2.52 -1.32 -4.12 -4.12 -4.12 l-3.6 0 l0 16.4 l3.6 0 c2.4 0 4.12 -1.56 4.12 -4.08 z M6.2 16.04 l0 21.52 c0 0.16 0.16 0.2 0.24 0.2 l6.52 0 c4.6 0 6.68 -2.76 6.68 -5.32 l0 -10.24 c0 -4.24 -2.24 -6.4 -6.8 -6.4 l-6.4 0 c-0.08 0 -0.24 0.04 -0.24 0.24 z M19.16 22.2 l0 10.24 c0 3.2 -3.2 4.88 -6.2 4.88 l-6.28 0 l0 -21 l6.16 0 c4.2 0 6.32 1.88 6.32 5.88 z M37.68 13.239999999999998 c3.44 0 5.84 0.76 7.36 2.4 c1.2 1.32 1.76 3.2 1.76 5.88 l0 10.52 c0 2.76 -0.56 4.68 -1.76 5.96 c-1.56 1.6 -3.92 2.4 -7.36 2.4 c-3.56 0 -5.88 -0.8 -7.4 -2.4 c-1.16 -1.28 -1.8 -3.2 -1.8 -5.96 l0 -10.52 c0 -2.68 0.64 -4.56 1.8 -5.92 c1.56 -1.6 3.92 -2.36 7.4 -2.36 z M41.480000000000004 30.84 l0 -8 c0 -3.52 -1.88 -4.24 -3.6 -4.24 l-0.48 0 c-2.56 0 -3.56 1.64 -3.56 4.24 l0 8 c0 3.52 1.88 4.28 3.56 4.28 l0.48 0 c2.56 0 3.56 -1.72 3.6 -4.28 z M31 21.8 l0 9.92 c0 1.88 0.48 3.44 1.6 4.6 c1.04 1.04 2.64 1.6 4.6 1.6 l1.04 0 c3.76 0 6.2 -2.4 6.2 -6.2 l0 -9.92 c0 -4.08 -2.16 -6.28 -6.2 -6.28 l-1.04 0 c-4.08 0 -6.2 2.2 -6.2 6.28 z M38.24 37.4 l-1.04 0 c-1.88 0 -3.28 -0.48 -4.28 -1.48 s-1.52 -2.4 -1.52 -4.2 l0 -9.92 c0 -3.8 2.04 -5.8 5.8 -5.8 l1.04 0 c3.8 0 5.68 1.96 5.68 5.8 l0 9.92 c0 1.68 -0.52 3.2 -1.6 4.24 c-1.04 0.88 -2.44 1.44 -4.08 1.44 z M66.32000000000001 30.759999999999998 l0 -1.24 c0 -0.2 0.16 -0.36 0.36 -0.36 l4.56 0 c0.2 0 0.36 0.16 0.36 0.36 l0 2.52 c0 5.88 -3.16 8.36 -9.12 8.36 c-5.56 0 -9.2 -2.2 -9.2 -8.36 l0 -10.52 c0 -5.92 3.24 -8.28 9.2 -8.28 c5.64 0 9.12 2.16 9.12 8.28 l0 0.84 c0 0.2 -0.16 0.36 -0.36 0.36 l-4.6 0 c-0.2 0 -0.36 -0.16 -0.36 -0.36 l0 -0.64 c0 -2.2 -1.64 -3.12 -3.6 -3.12 l-0.48 0 c-1.32 0 -2.2 0.36 -2.8 1.16 c-0.56 0.76 -0.76 1.76 -0.76 3.08 l0 7.92 c0 3.48 1.96 4.24 3.56 4.24 l0.48 0 c2.52 0 3.56 -1.68 3.64 -4.24 z M62.400000000000006 15.719999999999999 c-4.28 0 -6.76 1.52 -6.76 6.4 l0 9.64 c0 4.44 2.28 6.08 6.76 6.08 c4.2 0 6.72 -1.52 6.72 -6.12 c0 -0.32 -0.48 -0.32 -0.48 0 c0 4.04 -2.2 5.68 -6.24 5.68 c-3.92 0 -6.32 -1.36 -6.32 -5.64 l0 -9.64 c0 -4.16 1.96 -5.96 6.32 -5.96 c5.68 0 5.88 3.6 5.88 4 c0 0.36 0.56 0.4 0.56 0 c0 -3.32 -3.36 -4.44 -6.44 -4.44 z M91.08000000000001 30.759999999999998 l0 -16.8 c0 -0.2 0.16 -0.36 0.36 -0.36 l4.56 0 c0.2 0 0.36 0.16 0.36 0.36 l0 18.08 c0 5.76 -3.16 8.36 -9.12 8.36 c-5.64 0 -9.16 -2.24 -9.16 -8.36 l0 -18.08 c0 -0.2 0.16 -0.36 0.36 -0.36 l4.6 0 c0.2 0 0.36 0.16 0.36 0.36 l0 16.8 c0 3.48 1.96 4.24 3.6 4.24 l0.48 0 c2.48 0 3.6 -1.68 3.6 -4.24 z M80.56 16.16 l0 15.56 c0 3.6 2.44 6.2 6.24 6.2 l1 0 c3.8 0 6.28 -2.72 6.28 -6.2 l0 -15.56 c0 -0.36 -0.48 -0.4 -0.48 0 l0 15.56 c0 3.28 -2.36 5.68 -5.8 5.68 l-1 0 c-3.36 0 -5.76 -2.16 -5.76 -5.68 l0 -15.56 c0 -0.36 -0.48 -0.36 -0.48 0 z M125.64000000000001 13.600000000000001 c0.2 0 0.36 0.16 0.36 0.36 l0 25.68 c0 0.2 -0.16 0.36 -0.36 0.36 l-4.36 0 c-0.12 0 -0.32 -0.16 -0.32 -0.36 l0 -14.8 l-4.4 14.92 c-0.08 0.16 -0.16 0.24 -0.32 0.24 l-3.16 0 c-0.12 0 -0.28 -0.08 -0.32 -0.24 l-4.12 -15.2 l0 15.08 c0 0.2 -0.16 0.36 -0.36 0.36 l-4.44 0 c-0.16 0 -0.28 -0.16 -0.28 -0.36 l0 -25.68 c0 -0.2 0.12 -0.36 0.28 -0.36 l5.6 0 c0.16 0 0.32 0.12 0.36 0.24 l4.84 16.2 l5.32 -16.2 c0 -0.12 0.12 -0.24 0.28 -0.24 l5.4 0 z M123.16000000000001 37.56 c0 0.28 0.52 0.36 0.52 0 l0 -21.56 c0 -0.08 -0.12 -0.2 -0.24 -0.2 l-1.88 0 c-0.16 0 -0.2 0.12 -0.28 0.2 l-6.64 19.8 l-6.6 -19.84 c0 -0.12 -0.08 -0.16 -0.2 -0.16 l-1.96 0 c-0.12 0 -0.24 0.12 -0.24 0.24 l0 21.52 c0 0.28 0.52 0.36 0.52 0 l0 -21.24 l1.48 0 l6.76 20.32 c0.16 0.28 0.28 0.2 0.48 0 l6.8 -20.32 l1.48 0 l0 21.24 z M133.84000000000003 40 c-0.2 0 -0.32 -0.16 -0.32 -0.36 l0 -25.68 c0 -0.2 0.12 -0.36 0.32 -0.36 l13.6 0 c0.2 0 0.36 0.16 0.36 0.36 l0 4.28 c0 0.2 -0.16 0.36 -0.36 0.36 l-8.64 0 l0 5.44 l6.72 0 c0.2 0 0.32 0.16 0.32 0.36 l0 4.36 c0 0.2 -0.12 0.36 -0.32 0.36 l-6.72 0 l0 5.88 l8.64 0 c0.2 0 0.36 0.16 0.36 0.36 l0 4.28 c0 0.2 -0.16 0.36 -0.36 0.36 l-13.6 0 z M135.84000000000003 16.12 l0 21.28 c0 0.24 0.16 0.32 0.32 0.32 l9.2 0 c0.36 0 0.28 -0.48 0 -0.48 l-9 0 l0 -10.44 l7.36 0 c0.24 0 0.24 -0.56 0 -0.56 l-7.36 0 l0 -9.92 l9 0 c0.28 0 0.36 -0.52 0 -0.52 l-9.2 0 c-0.16 0 -0.32 0.12 -0.32 0.32 z M165.68 13.600000000000001 l4.56 0 c0.24 0 0.4 0.24 0.32 0.52 l-5.2 11.72 l6.28 13.68 c0.12 0.24 -0.04 0.48 -0.28 0.48 l-4.52 0 c-0.16 0 -0.24 -0.04 -0.28 -0.2 l-4.4 -9.36 l-4.4 9.36 c-0.12 0.2 -0.16 0.2 -0.32 0.2 l-4.56 0 c-0.24 0 -0.4 -0.24 -0.28 -0.48 l6.24 -13.68 l-5.16 -11.72 c-0.08 -0.28 0.08 -0.52 0.32 -0.52 l4.64 0 c0.16 0 0.24 0.12 0.32 0.2 l3.2 7.12 l3.24 -7.12 c0.04 -0.08 0.16 -0.2 0.28 -0.2 z M168.04000000000002 37.64 c0.12 0.2 0.56 0.12 0.4 -0.24 l-6 -11.68 l4.84 -9.52 c0.12 -0.24 -0.12 -0.56 -0.4 -0.28 l-4.72 9.28 l-4.76 -9.28 c-0.16 -0.28 -0.72 -0.08 -0.52 0.28 l4.96 9.52 l-6.04 11.68 c-0.12 0.36 0.36 0.44 0.44 0.24 l5.92 -11.4 z"></path></g><g id="SvgjsG2134" featureKey="sloganFeature-0" transform="matrix(1.0827138820850306,0,0,1.0827138820850306,137.9644971324256,80.8324357733385)" fill="#233b6e"><path d="M12.92 6.800000000000001 c0.1 0 0.18 0.08 0.18 0.18 l0 12.84 c0 0.1 -0.08 0.18 -0.18 0.18 l-2.18 0 c-0.06 0 -0.16 -0.08 -0.16 -0.18 l0 -7.4 l-2.2 7.46 c-0.04 0.08 -0.08 0.12 -0.16 0.12 l-1.58 0 c-0.06 0 -0.14 -0.04 -0.16 -0.12 l-2.06 -7.6 l0 7.54 c0 0.1 -0.08 0.18 -0.18 0.18 l-2.22 0 c-0.08 0 -0.14 -0.08 -0.14 -0.18 l0 -12.84 c0 -0.1 0.06 -0.18 0.14 -0.18 l2.8 0 c0.08 0 0.16 0.06 0.18 0.12 l2.42 8.1 l2.66 -8.1 c0 -0.06 0.06 -0.12 0.14 -0.12 l2.7 0 z M13.96 8.4 l-0.6 -0.64 l0 -0.54 l0.6 0.6 l0 0.58 z M13.96 9.5 l-0.6 -0.6 l0 -0.56 l0.6 0.6 l0 0.56 z M13.96 10.62 l-0.6 -0.6 l0 -0.58 l0.6 0.62 l0 0.56 z M13.96 11.74 l-0.6 -0.6 l0 -0.58 l0.6 0.64 l0 0.54 z M13.96 12.86 l-0.6 -0.6 l0 -0.56 l0.6 0.62 l0 0.54 z M13.96 14 l-0.6 -0.6 l0 -0.58 l0.6 0.62 l0 0.56 z M13.96 15.120000000000001 l-0.6 -0.6 l0 -0.58 l0.6 0.6 l0 0.58 z M6.02 8.3 l-0.4 -0.4 l-0.16 -0.54 l0.36 0.36 c0.02 0.02 0.04 0.04 0.04 0.08 z M13.96 16.240000000000002 l-0.6 -0.6 l0 -0.58 l0.6 0.6 l0 0.58 z M13.96 17.36 l-0.6 -0.62 l0 -0.54 l0.6 0.6 l0 0.56 z M6.48 9.9 l-0.36 -0.4 l-0.26 -0.8 l0.4 0.4 z M13.96 18.5 l-0.6 -0.64 l0 -0.54 l0.6 0.6 l0 0.58 z M6.98 11.5 l-0.4 -0.4 l-0.24 -0.8 l0.4 0.4 z M10.02 15.2 l0 0.44 l-0.1 -0.1 z M13.96 19.6 l-0.6 -0.6 l0 -0.56 l0.6 0.6 l0 0.56 z M7.42 13.04 l-0.36 -0.34 l-0.24 -0.8 l0.4 0.4 l0.22 0.7 z M10.02 16.2 l0 0.56 l-0.36 -0.34 l0.12 -0.46 z M9.52 16.84 l0.5 0.48 l0 0.58 l-0.64 -0.64 z M12.38 20.26 l0.38 0 c0.08 0 0.12 0 0.18 -0.02 l0.62 0.62 l-0.58 0 z M11.86 20.86 l-0.6 -0.6 l0.58 0 l0.6 0.6 l-0.58 0 z M9.84 18.82 l-0.7 -0.68 l0.12 -0.42 l0.7 0.68 z M9.56 19.7 l-0.68 -0.7 l0.14 -0.44 l0.66 0.7 z M8.62 19.86 l0.02 -0.02 l0.12 -0.4 l0.68 0.68 l-0.12 0.44 z M4.72 15.4 l0.2 0.76 l-0.24 -0.22 l0 -0.58 z M7.92 20.26 l0.14 0 c0.1 0 0.22 -0.02 0.3 -0.06 l0.7 0.66 l-0.54 0 z M4.68 16.5 l0.46 0.44 l0.14 0.58 l0 0.14 l-0.6 -0.62 l0 -0.54 z M7.42 20.82 l-0.58 -0.56 l0.5 0 l0.6 0.6 l-0.42 0 c-0.04 0 -0.08 0 -0.1 -0.04 z M5.28 18.8 l-0.6 -0.64 l0 -0.54 l0.6 0.6 l0 0.58 z M5.28 19.92 l-0.6 -0.62 l0 -0.56 l0.6 0.6 l0 0.58 z M4.44 20.16 c0.12 -0.04 0.2 -0.2 0.22 -0.32 l0.62 0.62 l0 0.26 c0 0.08 -0.04 0.14 -0.14 0.14 z M4.02 20.86 l-0.6 -0.6 l0.54 0 l0.62 0.6 l-0.56 0 z M2.88 20.86 l-0.6 -0.6 l0.58 0 l0.6 0.6 l-0.58 0 z M13.26 20.02 c0.06 -0.1 0.1 -0.22 0.1 -0.36 l0 -0.1 l0.6 0.6 l0 0.56 z M21.9815 6.92 c0.02 -0.06 0.06 -0.12 0.14 -0.12 l2.48 0 c0.08 0 0.12 0.06 0.14 0.12 l3.46 12.86 c0.02 0.12 -0.06 0.22 -0.18 0.22 l-2.28 0 c-0.06 0 -0.12 -0.04 -0.14 -0.12 l-0.78 -2.8 l-2.92 0 l-0.76 2.8 c-0.02 0.08 -0.06 0.12 -0.14 0.12 l-2.3 0 c-0.12 0 -0.2 -0.1 -0.18 -0.22 z M22.541500000000003 14.6 l1.66 0 l-0.86 -3.02 z M21.1215 20.22 c0.16 -0.04 0.26 -0.14 0.28 -0.26 l0.68 0.64 l-0.06 0.16 c-0.02 0.06 -0.08 0.12 -0.14 0.12 l-0.1 0 z M29.021500000000003 20.82 c-0.02 0.04 -0.08 0.06 -0.12 0.06 l-0.4 0 l-0.62 -0.62 l0.14 0 c0.12 0 0.22 -0.06 0.3 -0.14 z M21.521500000000003 19.5 l0.12 -0.44 l0.66 0.66 l-0.12 0.44 z M21.741500000000002 18.6 l0.14 -0.42 l0.64 0.64 l-0.1 0.46 z M22.1015 17.32 l0.1 0 l0.58 0.6 l-0.14 0.46 l-0.64 -0.66 z M26.741500000000002 20.26 l0.58 0 l0.62 0.62 l-0.56 0 z M23.3215 17.96 l-0.6 -0.64 l0.56 0 l0.62 0.64 l-0.58 0 z M20.021500000000003 20.26 l0.58 0 l0.6 0.62 l-0.56 0 z M20.081500000000002 20.88 l-0.48 0 c-0.02 0 -0.08 -0.02 -0.1 -0.06 l-0.6 -0.56 l0.58 0 z M24.8015 17.96 l-0.36 0 l-0.6 -0.64 l0.56 0 l0.32 0.34 z M26.901500000000002 12.52 l-0.52 -0.5 l-0.2 -0.76 l0.52 0.5 z M28.1215 17.12 l-0.52 -0.52 l-0.2 -0.74 l0.52 0.5 z M28.521500000000003 18.66 l-0.5 -0.5 l-0.2 -0.78 l0.5 0.5 z M27.7215 15.6 l-0.52 -0.52 l-0.2 -0.78 l0.5 0.52 z M25.341500000000003 8.18 l0.54 0.52 l0.2 0.78 l-0.5 -0.52 z M28.9415 20.18 l-0.52 -0.5 l-0.2 -0.78 l0.5 0.52 z M27.3015 14.059999999999999 l-0.5 -0.5 l-0.22 -0.78 l0.52 0.52 z M26.481500000000004 11 l-0.5 -0.52 l-0.2 -0.76 l0.5 0.5 z M22.9215 14.18 l0.12 -0.46 l0.64 0.64 l-0.58 0 z M23.521500000000003 13.08 l0.22 0.78 l-0.56 -0.58 l0.1 -0.42 z M25.9415 20.26 l0.26 0 l0.62 0.62 l-0.2 0 c-0.04 0 -0.1 -0.02 -0.12 -0.06 z M25.1415 7.42 l-0.04 -0.2 l0.44 0.46 c0.04 0.02 0.08 0.08 0.08 0.12 l0.06 0.12 z M42.023 6.800000000000001 c0.14 0 0.22 0.16 0.14 0.28 l-3.14 4.34 l3.32 8.36 c0.04 0.1 -0.02 0.22 -0.16 0.22 l-2.7 0 c-0.06 0 -0.12 -0.04 -0.14 -0.12 l-2.08 -5.98 l-1.02 1.4 l0 4.52 c0 0.1 -0.08 0.18 -0.18 0.18 l-2.28 0 c-0.1 0 -0.16 -0.08 -0.16 -0.18 l0 -12.84 c0 -0.1 0.06 -0.18 0.16 -0.18 l2.28 0 c0.1 0 0.18 0.08 0.18 0.18 l0 4.14 l3.14 -4.24 c0.06 -0.08 0.08 -0.08 0.16 -0.08 l2.48 0 z M42.223 7.4 c0.12 -0.2 0.14 -0.22 0.16 -0.24 l0.58 0.6 c0.08 0.06 0.08 0.12 0.02 0.2 l-0.1 0.12 z M41.743 8.06 l0.24 -0.34 l0.68 0.68 l-0.22 0.32 z M41.283 8.7 l0.24 -0.32 l0.66 0.7 l-0.22 0.32 z M41.743 9.72 l-0.26 0.34 l-0.66 -0.7 l0.22 -0.34 z M41.263000000000005 10.38 l-0.24 0.32 l-0.68 -0.7 l0.22 -0.32 z M36.483000000000004 7.16 l0.58 0.56 c0.02 0.04 0.06 0.06 0.06 0.1 l0 0.08 l-0.64 -0.62 l0 -0.12 z M40.783 11.02 l-0.22 0.34 l-0.7 -0.7 l0.26 -0.34 z M40.323 11.68 l-0.24 0.32 l-0.7 -0.68 l0.26 -0.34 z M37.123000000000005 8.46 l0 0.56 l-0.64 -0.62 l0 -0.54 z M37.083 9.56 l-0.24 0.32 l-0.36 -0.36 l0 -0.54 z M39.523 11.98 l0.4 0.42 l0.36 0.92 l-0.4 -0.4 z M36.483000000000004 10.38 l0 -0.3 l0.14 0.12 z M40.263000000000005 13.86 l0.4 0.42 l0.38 0.92 l-0.42 -0.42 z M40.983000000000004 15.719999999999999 l0.44 0.4 l0.36 0.96 l-0.42 -0.42 z M41.743 17.58 l0.42 0.42 l0.38 0.96 l-0.42 -0.44 z M37.343 14.86 l-0.28 -0.26 l0.12 -0.18 z M42.923 19.88 l0.3 0.74 c0.02 0.06 0.02 0.08 0 0.14 l-0.68 -0.68 c0.08 -0.12 0.1 -0.28 0.04 -0.4 l-0.1 -0.22 z M36.583 15.26 l0.26 -0.34 l0.68 0.68 l-0.24 0.32 z M42.223 20.88 l-0.6 -0.62 l0.54 0 l0.62 0.62 l-0.56 0 z M37.123000000000005 16.32 l0 0.56 l-0.64 -0.62 l0 -0.56 z M40.483000000000004 20.26 l0.56 0 l0.62 0.62 l-0.58 0 z M39.663000000000004 20.26 l0.26 0 l0.62 0.62 l-0.18 0 c-0.04 0 -0.1 -0.02 -0.12 -0.06 c-0.06 -0.04 -0.36 -0.34 -0.58 -0.56 z M37.123000000000005 17.46 l0 0.54 l-0.64 -0.62 l0 -0.56 z M37.123000000000005 18.56 l0 0.56 l-0.64 -0.62 l0 -0.54 z M36.483000000000004 19.62 l0 -0.54 l0.64 0.6 l0 0.58 z M36.943000000000005 20.88 l-0.32 0 l-0.64 -0.62 l0.08 0 c0.16 0 0.26 -0.06 0.32 -0.16 l0.7 0.68 c-0.02 0.04 -0.1 0.1 -0.14 0.1 z M36.043 20.88 l-0.56 0 l-0.62 -0.62 l0.58 0 z M33.963 20.26 l0.36 0 l0.6 0.62 l-0.28 0 c-0.06 0 -0.08 -0.02 -0.1 -0.06 c-0.06 -0.04 -0.32 -0.32 -0.58 -0.56 z M48.0245 20 c-0.1 0 -0.16 -0.08 -0.16 -0.18 l0 -12.84 c0 -0.1 0.06 -0.18 0.16 -0.18 l6.8 0 c0.1 0 0.18 0.08 0.18 0.18 l0 2.14 c0 0.1 -0.08 0.18 -0.18 0.18 l-4.32 0 l0 2.72 l3.36 0 c0.1 0 0.16 0.08 0.16 0.18 l0 2.18 c0 0.1 -0.06 0.18 -0.16 0.18 l-3.36 0 l0 2.94 l4.32 0 c0.1 0 0.18 0.08 0.18 0.18 l0 2.14 c0 0.1 -0.08 0.18 -0.18 0.18 l-6.8 0 z M54.28450000000001 14.36 l0.62 0.62 l0 0.28 c0 0.06 -0.08 0.14 -0.12 0.14 l-0.7 -0.68 c0.12 -0.06 0.2 -0.2 0.2 -0.36 z M55.264500000000005 19.82 l0.62 0.64 l0 0.24 c0 0.08 -0.08 0.16 -0.16 0.18 l-0.66 -0.7 c0.12 -0.06 0.2 -0.2 0.2 -0.36 z M54.28450000000001 13.8 l0 -0.58 l0.62 0.64 l0 0.56 z M50.764500000000005 10.28 l0 -0.58 l0.62 0.62 l0 0.58 z M51.404500000000006 15.42 l-0.62 -0.62 l0.58 0 l0.62 0.62 l-0.58 0 z M55.7045 10.18 l-0.58 0 l-0.6 -0.62 l0.3 0 c0.08 0 0.16 -0.04 0.2 -0.06 z M50.68450000000001 20.88 l-0.56 0 l-0.62 -0.62 l0.58 0 z M48.3845 20.26 l0.58 0 l0.6 0.62 l-0.56 0 z M55.264500000000005 19.28 l0 -0.58 l0.62 0.62 l0 0.56 z M53.0245 14.8 l0.58 0 l0.6 0.62 l-0.54 0 z M54.00450000000001 10.18 l-0.6 -0.62 l0.56 0 l0.62 0.62 l-0.58 0 z M54.00450000000001 20.26 l0.56 0 l0.62 0.62 l-0.58 0 z M52.2845 9.56 l0.54 0 l0.64 0.62 l-0.58 0 z M53.4245 20.26 l0.64 0.62 l-0.58 0 l-0.6 -0.62 l0.54 0 z M52.484500000000004 14.8 l0.6 0.62 l-0.56 0 l-0.62 -0.62 l0.58 0 z M51.804500000000004 20.88 l-0.54 0 l-0.64 -0.62 l0.56 0 z M55.8845 9.22 l0 0.56 l-0.62 -0.62 l0 -0.56 z M51.3845 15.96 l0 0.54 l-0.62 -0.62 l0 -0.56 z M55.8845 8.1 l0 0.56 l-0.62 -0.64 l0 -0.54 z M51.164500000000004 9.56 l0.54 0 l0.62 0.62 l-0.54 0 z M52.9245 20.88 l-0.54 0 l-0.62 -0.62 l0.54 0 z M50.764500000000005 11.4 l0 -0.58 l0.62 0.64 l0 0.32 l-0.26 0 z M50.764500000000005 17 l0 -0.54 l0.62 0.62 l0 0.18 l-0.38 0 z M54.28450000000001 12.379999999999999 l0.58 0.58 c0.04 0.04 0.04 0.06 0.04 0.12 l0 0.22 l-0.62 -0.62 l0 -0.3 z M55.8845 18.52 l0 0.24 l-0.62 -0.6 l0 -0.3 l0.56 0.54 c0.06 0.06 0.06 0.08 0.06 0.12 z M71.26750000000001 20 c-0.1 0 -0.16 -0.08 -0.16 -0.18 l0 -12.84 c0 -0.1 0.06 -0.18 0.16 -0.18 l2.28 0 c0.1 0 0.18 0.08 0.18 0.18 l0 12.84 c0 0.1 -0.08 0.18 -0.18 0.18 l-2.28 0 z M73.9675 8.12 l0 -0.54 l0.64 0.6 l0 0.58 z M73.9675 9.26 l0 -0.56 l0.64 0.6 l0 0.58 z M73.9675 10.38 l0 -0.58 l0.64 0.62 l0 0.56 z M73.9675 11.5 l0 -0.58 l0.64 0.64 l0 0.54 z M73.9675 12.620000000000001 l0 -0.56 l0.64 0.62 l0 0.54 z M73.9675 13.76 l0 -0.58 l0.64 0.62 l0 0.56 z M73.9675 14.879999999999999 l0 -0.58 l0.64 0.62 l0 0.56 z M73.9675 15.98 l0 -0.56 l0.64 0.6 l0 0.58 z M73.9675 17.1 l0 -0.54 l0.64 0.62 l0 0.54 z M73.9675 18.22 l0 -0.54 l0.64 0.6 l0 0.58 z M73.9675 19.36 l0 -0.56 l0.64 0.6 l0 0.58 z M73.7275 20.22 c0.12 -0.04 0.22 -0.16 0.24 -0.32 l0.64 0.62 l0 0.18 c0 0.1 -0.08 0.18 -0.18 0.18 l-0.06 0 z M72.62750000000001 20.26 l0.58 0 l0.62 0.62 l-0.58 0 z M72.12750000000001 20.88 l-0.6 -0.62 l0.54 0 l0.64 0.62 l-0.58 0 z M79.249 9.3 c-0.1 0 -0.18 -0.08 -0.18 -0.18 l0 -2.14 c0 -0.1 0.08 -0.18 0.18 -0.18 l8.34 0 c0.1 0 0.18 0.08 0.18 0.18 l0 2.14 c0 0.1 -0.08 0.18 -0.18 0.18 l-2.84 0 l0 10.52 c0 0.1 -0.08 0.18 -0.18 0.18 l-2.3 0 c-0.1 0 -0.18 -0.08 -0.18 -0.18 l0 -10.52 l-2.84 0 z M88.029 7.16 c0.2 0.2 0.44 0.42 0.56 0.56 c0.04 0.04 0.06 0.08 0.06 0.1 l0 0.04 l-0.62 -0.64 l0 -0.06 z M88.029 8.36 l0 -0.58 l0.62 0.62 l0 0.58 z M88.029 9.12 l0 -0.22 l0.62 0.62 l0 0.48 c0 0.02 0 0.06 -0.02 0.08 l-0.68 -0.7 c0.04 -0.08 0.08 -0.16 0.08 -0.26 z M86.989 9.56 l0.56 0 l0.62 0.62 l-0.58 0 z M85.869 9.56 l0.56 0 l0.62 0.62 l-0.58 0 z M84.989 9.56 l0.3 0 l0.64 0.62 l-0.3 0 l0 0.24 l-0.64 -0.62 l0 -0.24 z M85.629 11 l0 0.56 l-0.64 -0.64 l0 -0.54 z M85.629 12.120000000000001 l0 0.56 l-0.64 -0.62 l0 -0.56 z M85.629 13.219999999999999 l0 0.58 l-0.64 -0.62 l0 -0.56 z M81.849 9.56 l0 0.46 l-0.48 -0.46 l0.48 0 z M80.869 10.18 l-0.62 -0.62 l0.54 0 l0.64 0.62 l-0.56 0 z M85.629 14.36 l0 0.56 l-0.64 -0.62 l0 -0.54 z M85.629 15.48 l0 0.58 l-0.64 -0.64 l0 -0.54 z M79.68900000000001 9.56 l0.6 0.62 l-0.16 0 c-0.06 0 -0.1 -0.02 -0.14 -0.06 l-0.56 -0.56 l0.26 0 z M85.629 16.6 l0 0.58 l-0.64 -0.62 l0 -0.58 z M85.629 17.72 l0 0.56 l-0.64 -0.6 l0 -0.58 z M84.989 18.8 l0 -0.58 l0.64 0.64 l0 0.54 z M85.629 19.98 l0 0.54 l-0.64 -0.62 l0 -0.54 z M85.389 20.88 l-0.56 0 l-0.6 -0.62 l0.36 0 c0.06 0 0.1 0 0.16 -0.04 z M84.269 20.88 l-0.54 0 l-0.64 -0.62 l0.56 0 z M82.449 20.26 l0.08 0 l0.62 0.62 c-0.06 0 -0.1 -0.02 -0.12 -0.06 z M108.45200000000001 6.800000000000001 c1.36 0 2.38 0.38 3.06 1.12 c0.6 0.66 0.9 1.64 0.9 2.84 l0 5.3 c0 2.42 -1.4 3.94 -3.96 3.94 l-5 0 c-0.1 0 -0.16 -0.08 -0.16 -0.18 l0 -12.84 c0 -0.1 0.06 -0.18 0.16 -0.18 l5 0 z M109.792 15.46 l0 -4.1 c0 -1.26 -0.66 -2.06 -2.06 -2.06 l-1.8 0 l0 8.2 l1.8 0 c1.2 0 2.06 -0.78 2.06 -2.04 z M112.632 10.18 c-0.02 -0.22 -0.04 -0.42 -0.1 -0.66 l0.52 0.54 c0.08 0.22 0.14 0.46 0.16 0.72 z M113.292 11.62 l0 0.34 l-0.64 -0.64 l0 -0.54 l0.6 0.6 c0.04 0.08 0.04 0.14 0.04 0.24 z M113.292 12.5 l0 0.58 l-0.64 -0.62 l0 -0.56 z M113.292 13.620000000000001 l0 0.58 l-0.64 -0.62 l0 -0.56 z M113.292 14.76 l0 0.56 l-0.64 -0.62 l0 -0.58 z M108.69200000000001 10.18 l-0.56 0 l-0.62 -0.62 l0.22 0 c0.12 0 0.26 0 0.36 0.02 z M106.39200000000001 9.56 l0.56 0 l0.6 0.62 l-0.54 0 z M113.292 15.879999999999999 l0 0.54 l-0.64 -0.6 l0 -0.56 z M106.19200000000001 10.48 l0 -0.58 l0.62 0.62 l0 0.56 z M113.292 17 c-0.04 0.18 -0.04 0.36 -0.06 0.52 l-0.62 -0.64 c0.02 -0.16 0.02 -0.32 0.04 -0.5 z M106.19200000000001 11.58 l0 -0.56 l0.62 0.64 l0 0.54 z M112.012 18.56 c0.08 -0.14 0.14 -0.26 0.2 -0.38 l0.68 0.68 c-0.06 0.12 -0.14 0.26 -0.18 0.36 z M106.19200000000001 12.7 l0 -0.54 l0.62 0.62 l0 0.54 z M106.19200000000001 13.82 l0 -0.54 l0.62 0.62 l0 0.56 z M112.452 19.56 c-0.06 0.1 -0.14 0.2 -0.24 0.3 l-0.7 -0.68 c0.02 -0.02 0.04 -0.06 0.04 -0.08 c0.08 -0.08 0.16 -0.14 0.24 -0.22 z M106.19200000000001 14.96 l0 -0.56 l0.62 0.6 l0 0.58 z M110.89200000000001 19.66 c0.1 -0.08 0.22 -0.16 0.32 -0.24 l0.7 0.7 c-0.1 0.08 -0.22 0.16 -0.36 0.2 z M106.19200000000001 16.08 l0 -0.56 l0.62 0.6 l0 0.58 z M111.19200000000001 20.52 c-0.14 0.06 -0.28 0.1 -0.4 0.16 l-0.68 -0.68 c0.12 -0.04 0.24 -0.1 0.4 -0.14 z M106.19200000000001 17.259999999999998 l0 -0.64 l0.6 0.64 l-0.6 0 z M110.33200000000001 20.78 c-0.18 0.02 -0.32 0.04 -0.5 0.08 l-0.64 -0.66 c0.16 -0.02 0.32 -0.04 0.46 -0.08 z M108.45200000000001 20.26 l0.2 0 l0.64 0.62 l-0.56 0 l-0.62 -0.62 l0.34 0 z M106.992 20.26 l0.56 0 l0.6 0.62 l-0.54 0 z M106.492 20.88 l-0.64 -0.62 l0.58 0 l0.6 0.62 l-0.54 0 z M104.732 20.26 l0.58 0 l0.6 0.62 l-0.56 0 z M103.632 20.26 l0.56 0 l0.62 0.62 l-0.5 0 c-0.06 0 -0.08 -0.02 -0.1 -0.06 c-0.06 -0.04 -0.32 -0.32 -0.58 -0.56 z M113.152 18 c-0.02 0.18 -0.04 0.3 -0.1 0.46 l-0.66 -0.68 c0.04 -0.12 0.1 -0.28 0.12 -0.42 z M118.69350000000001 20 c-0.1 0 -0.16 -0.08 -0.16 -0.18 l0 -12.84 c0 -0.1 0.06 -0.18 0.16 -0.18 l2.28 0 c0.1 0 0.18 0.08 0.18 0.18 l0 12.84 c0 0.1 -0.08 0.18 -0.18 0.18 l-2.28 0 z M121.3935 8.12 l0 -0.54 l0.64 0.6 l0 0.58 z M121.3935 9.26 l0 -0.56 l0.64 0.6 l0 0.58 z M121.3935 10.38 l0 -0.58 l0.64 0.62 l0 0.56 z M121.3935 11.5 l0 -0.58 l0.64 0.64 l0 0.54 z M121.3935 12.620000000000001 l0 -0.56 l0.64 0.62 l0 0.54 z M121.3935 13.76 l0 -0.58 l0.64 0.62 l0 0.56 z M121.3935 14.879999999999999 l0 -0.58 l0.64 0.62 l0 0.56 z M121.3935 15.98 l0 -0.56 l0.64 0.6 l0 0.58 z M121.3935 17.1 l0 -0.54 l0.64 0.62 l0 0.54 z M121.3935 18.22 l0 -0.54 l0.64 0.6 l0 0.58 z M121.3935 19.36 l0 -0.56 l0.64 0.6 l0 0.58 z M121.15350000000001 20.22 c0.12 -0.04 0.22 -0.16 0.24 -0.32 l0.64 0.62 l0 0.18 c0 0.1 -0.08 0.18 -0.18 0.18 l-0.06 0 z M120.05350000000001 20.26 l0.58 0 l0.62 0.62 l-0.58 0 z M119.55350000000001 20.88 l-0.6 -0.62 l0.54 0 l0.64 0.62 l-0.58 0 z M131.595 15.2 c-0.1 0 -0.18 -0.08 -0.18 -0.18 l0 -2.14 c0 -0.1 0.08 -0.18 0.18 -0.18 l4.58 0 c0.1 0 0.18 0.08 0.18 0.18 l0 3.14 c0 2.94 -1.58 4.18 -4.56 4.18 c-2.78 0 -4.6 -1.1 -4.6 -4.18 l0 -5.26 c0 -2.9 1.62 -4.14 4.6 -4.14 c2.8 0 4.56 1.08 4.56 4.14 l0 0.42 c0 0.1 -0.08 0.18 -0.18 0.18 l-2.3 0 c-0.1 0 -0.18 -0.08 -0.18 -0.18 l0 -0.26 c0 -1.22 -0.78 -1.62 -1.8 -1.62 l-0.24 0 c-0.66 0 -1.1 0.18 -1.4 0.58 c-0.28 0.38 -0.38 0.88 -0.38 1.54 l0 3.96 c0 1.74 0.94 2.12 1.78 2.12 l0.24 0 c1.22 0 1.8 -0.84 1.8 -2.12 l0 -0.18 l-2.1 0 z M131.115 10.76 c-0.02 0 -0.02 0.02 -0.04 0.04 l-0.68 -0.7 l0.06 -0.08 c0.06 -0.06 0.12 -0.14 0.22 -0.22 l0.68 0.7 z M136.355 11.58 c0.1 -0.06 0.22 -0.12 0.24 -0.32 l0.62 0.62 l0 0.18 c0 0.1 -0.06 0.16 -0.16 0.16 l-0.06 0 z M135.615 20.4 c-0.1 0.08 -0.22 0.12 -0.34 0.2 l-0.68 -0.68 l0.36 -0.22 z M134.875 20.76 c-0.16 0.04 -0.3 0.1 -0.46 0.12 l-0.64 -0.66 c0.02 0 0.04 -0.02 0.08 -0.02 l0.34 -0.12 z M135.355 19.4 l0.22 -0.2 l0.68 0.7 l-0.28 0.26 l-0.7 -0.68 z M136.715 19.26 l-0.22 0.32 l-0.68 -0.68 c0.08 -0.12 0.16 -0.22 0.2 -0.34 z M136.475 17.32 c0.04 -0.16 0.08 -0.32 0.08 -0.5 l0.64 0.66 c-0.02 0.18 -0.02 0.32 -0.08 0.5 z M132.155 10.18 c-0.16 0.02 -0.3 0.08 -0.46 0.12 l-0.64 -0.68 c0.12 -0.04 0.3 -0.06 0.46 -0.06 z M137.01500000000001 18.42 c-0.02 0.16 -0.06 0.3 -0.12 0.44 l-0.68 -0.68 c0.06 -0.1 0.1 -0.26 0.16 -0.4 z M133.975 20.98 c-0.18 0.02 -0.32 0.04 -0.5 0.04 l-0.66 -0.62 l0.5 -0.08 z M137.215 14.120000000000001 l0 0.58 l-0.62 -0.62 l0 -0.58 z M135.315 12.219999999999999 l-0.56 0 l-0.64 -0.62 l0.58 0 z M130.215 10.5 l0.68 0.68 c-0.04 0.12 -0.1 0.28 -0.1 0.44 l-0.64 -0.64 z M135.255 11.6 l0.56 0 l0.6 0.62 l-0.54 0 z M130.115 13.2 l0 -0.54 l0.64 0.6 l0 0.56 z M136.595 15.2 l0 -0.58 l0.62 0.64 l0 0.54 z M130.115 14.32 l0 -0.54 l0.64 0.6 l0 0.58 z M130.115 14.9 l0.64 0.6 l0 0.58 l-0.64 -0.62 l0 -0.56 z M132.675 21.08 c-0.1 0 -0.2 0 -0.3 -0.02 l-0.62 -0.6 l0.04 0 c0.18 0 0.36 0 0.5 -0.04 l0.62 0.66 l-0.24 0 z M136.595 15.76 l0.62 0.62 l0 0.54 l-0.62 -0.62 l0 -0.54 z M130.755 12.7 l-0.64 -0.62 l0 -0.56 l0.64 0.64 l0 0.54 z M136.575 10.1 l0.58 0.6 c0.04 0.2 0.06 0.42 0.06 0.62 l-0.62 -0.62 c0 -0.2 0 -0.4 -0.02 -0.6 z M133.375 16.08 l-0.38 0 l-0.62 -0.62 l0.54 0 l0.48 0.46 c0 0.06 0 0.1 -0.02 0.16 z M133.29500000000002 10.2 c-0.14 -0.02 -0.34 -0.02 -0.52 -0.02 l-0.08 0 l-0.6 -0.62 c0.28 0.02 0.52 0.06 0.72 0.16 z M130.555 20.38 c0.2 0.02 0.4 0.04 0.62 0.04 l0.6 0.6 c-0.22 -0.02 -0.46 -0.04 -0.66 -0.1 z M136.215 8.66 c0.44 0.46 0.66 0.86 0.78 1.32 l-0.52 -0.52 c-0.06 -0.26 -0.12 -0.58 -0.26 -0.8 z M130.815 17.06 c-0.34 -0.1 -0.54 -0.66 -0.62 -0.98 l0.58 0.58 c0 0.14 0.02 0.26 0.04 0.4 z M129.155 19.98 c0.22 0.1 0.44 0.18 0.7 0.24 l0.46 0.48 c-0.44 -0.18 -0.84 -0.4 -1.16 -0.72 z M142.5365 20 c-0.1 0 -0.16 -0.08 -0.16 -0.18 l0 -12.84 c0 -0.1 0.06 -0.18 0.16 -0.18 l2.28 0 c0.1 0 0.18 0.08 0.18 0.18 l0 12.84 c0 0.1 -0.08 0.18 -0.18 0.18 l-2.28 0 z M145.2365 8.12 l0 -0.54 l0.64 0.6 l0 0.58 z M145.2365 9.26 l0 -0.56 l0.64 0.6 l0 0.58 z M145.2365 10.38 l0 -0.58 l0.64 0.62 l0 0.56 z M145.2365 11.5 l0 -0.58 l0.64 0.64 l0 0.54 z M145.2365 12.620000000000001 l0 -0.56 l0.64 0.62 l0 0.54 z M145.2365 13.76 l0 -0.58 l0.64 0.62 l0 0.56 z M145.2365 14.879999999999999 l0 -0.58 l0.64 0.62 l0 0.56 z M145.2365 15.98 l0 -0.56 l0.64 0.6 l0 0.58 z M145.2365 17.1 l0 -0.54 l0.64 0.62 l0 0.54 z M145.2365 18.22 l0 -0.54 l0.64 0.6 l0 0.58 z M145.2365 19.36 l0 -0.56 l0.64 0.6 l0 0.58 z M144.9965 20.22 c0.12 -0.04 0.22 -0.16 0.24 -0.32 l0.64 0.62 l0 0.18 c0 0.1 -0.08 0.18 -0.18 0.18 l-0.06 0 z M143.8965 20.26 l0.58 0 l0.62 0.62 l-0.58 0 z M143.3965 20.88 l-0.6 -0.62 l0.54 0 l0.64 0.62 l-0.58 0 z M150.518 9.3 c-0.1 0 -0.18 -0.08 -0.18 -0.18 l0 -2.14 c0 -0.1 0.08 -0.18 0.18 -0.18 l8.34 0 c0.1 0 0.18 0.08 0.18 0.18 l0 2.14 c0 0.1 -0.08 0.18 -0.18 0.18 l-2.84 0 l0 10.52 c0 0.1 -0.08 0.18 -0.18 0.18 l-2.3 0 c-0.1 0 -0.18 -0.08 -0.18 -0.18 l0 -10.52 l-2.84 0 z M159.298 7.16 c0.2 0.2 0.44 0.42 0.56 0.56 c0.04 0.04 0.06 0.08 0.06 0.1 l0 0.04 l-0.62 -0.64 l0 -0.06 z M159.298 8.36 l0 -0.58 l0.62 0.62 l0 0.58 z M159.298 9.12 l0 -0.22 l0.62 0.62 l0 0.48 c0 0.02 0 0.06 -0.02 0.08 l-0.68 -0.7 c0.04 -0.08 0.08 -0.16 0.08 -0.26 z M158.258 9.56 l0.56 0 l0.62 0.62 l-0.58 0 z M157.138 9.56 l0.56 0 l0.62 0.62 l-0.58 0 z M156.258 9.56 l0.3 0 l0.64 0.62 l-0.3 0 l0 0.24 l-0.64 -0.62 l0 -0.24 z M156.898 11 l0 0.56 l-0.64 -0.64 l0 -0.54 z M156.898 12.120000000000001 l0 0.56 l-0.64 -0.62 l0 -0.56 z M156.898 13.219999999999999 l0 0.58 l-0.64 -0.62 l0 -0.56 z M153.118 9.56 l0 0.46 l-0.48 -0.46 l0.48 0 z M152.138 10.18 l-0.62 -0.62 l0.54 0 l0.64 0.62 l-0.56 0 z M156.898 14.36 l0 0.56 l-0.64 -0.62 l0 -0.54 z M156.898 15.48 l0 0.58 l-0.64 -0.64 l0 -0.54 z M150.958 9.56 l0.6 0.62 l-0.16 0 c-0.06 0 -0.1 -0.02 -0.14 -0.06 l-0.56 -0.56 l0.26 0 z M156.898 16.6 l0 0.58 l-0.64 -0.62 l0 -0.58 z M156.898 17.72 l0 0.56 l-0.64 -0.6 l0 -0.58 z M156.258 18.8 l0 -0.58 l0.64 0.64 l0 0.54 z M156.898 19.98 l0 0.54 l-0.64 -0.62 l0 -0.54 z M156.65800000000002 20.88 l-0.56 0 l-0.6 -0.62 l0.36 0 c0.06 0 0.1 0 0.16 -0.04 z M155.538 20.88 l-0.54 0 l-0.64 -0.62 l0.56 0 z M153.71800000000002 20.26 l0.08 0 l0.62 0.62 c-0.06 0 -0.1 -0.02 -0.12 -0.06 z M166.9595 6.92 c0.02 -0.06 0.06 -0.12 0.14 -0.12 l2.48 0 c0.08 0 0.12 0.06 0.14 0.12 l3.46 12.86 c0.02 0.12 -0.06 0.22 -0.18 0.22 l-2.28 0 c-0.06 0 -0.12 -0.04 -0.14 -0.12 l-0.78 -2.8 l-2.92 0 l-0.76 2.8 c-0.02 0.08 -0.06 0.12 -0.14 0.12 l-2.3 0 c-0.12 0 -0.2 -0.1 -0.18 -0.22 z M167.5195 14.6 l1.66 0 l-0.86 -3.02 z M166.0995 20.22 c0.16 -0.04 0.26 -0.14 0.28 -0.26 l0.68 0.64 l-0.06 0.16 c-0.02 0.06 -0.08 0.12 -0.14 0.12 l-0.1 0 z M173.99949999999998 20.82 c-0.02 0.04 -0.08 0.06 -0.12 0.06 l-0.4 0 l-0.62 -0.62 l0.14 0 c0.12 0 0.22 -0.06 0.3 -0.14 z M166.49949999999998 19.5 l0.12 -0.44 l0.66 0.66 l-0.12 0.44 z M166.71949999999998 18.6 l0.14 -0.42 l0.64 0.64 l-0.1 0.46 z M167.0795 17.32 l0.1 0 l0.58 0.6 l-0.14 0.46 l-0.64 -0.66 z M171.71949999999998 20.26 l0.58 0 l0.62 0.62 l-0.56 0 z M168.2995 17.96 l-0.6 -0.64 l0.56 0 l0.62 0.64 l-0.58 0 z M164.99949999999998 20.26 l0.58 0 l0.6 0.62 l-0.56 0 z M165.05949999999999 20.88 l-0.48 0 c-0.02 0 -0.08 -0.02 -0.1 -0.06 l-0.6 -0.56 l0.58 0 z M169.77949999999998 17.96 l-0.36 0 l-0.6 -0.64 l0.56 0 l0.32 0.34 z M171.8795 12.52 l-0.52 -0.5 l-0.2 -0.76 l0.52 0.5 z M173.0995 17.12 l-0.52 -0.52 l-0.2 -0.74 l0.52 0.5 z M173.49949999999998 18.66 l-0.5 -0.5 l-0.2 -0.78 l0.5 0.5 z M172.6995 15.6 l-0.52 -0.52 l-0.2 -0.78 l0.5 0.52 z M170.3195 8.18 l0.54 0.52 l0.2 0.78 l-0.5 -0.52 z M173.9195 20.18 l-0.52 -0.5 l-0.2 -0.78 l0.5 0.52 z M172.27949999999998 14.059999999999999 l-0.5 -0.5 l-0.22 -0.78 l0.52 0.52 z M171.4595 11 l-0.5 -0.52 l-0.2 -0.76 l0.5 0.5 z M167.8995 14.18 l0.12 -0.46 l0.64 0.64 l-0.58 0 z M168.49949999999998 13.08 l0.22 0.78 l-0.56 -0.58 l0.1 -0.42 z M170.9195 20.26 l0.26 0 l0.62 0.62 l-0.2 0 c-0.04 0 -0.1 -0.02 -0.12 -0.06 z M170.1195 7.42 l-0.04 -0.2 l0.44 0.46 c0.04 0.02 0.08 0.08 0.08 0.12 l0.06 0.12 z M181.041 6.800000000000001 c0.1 0 0.18 0.08 0.18 0.18 l0 10.5 l4.32 0 c0.1 0 0.18 0.08 0.18 0.18 l0 2.16 c0 0.1 -0.08 0.18 -0.18 0.18 l-6.78 0 c-0.1 0 -0.16 -0.08 -0.16 -0.18 l0 -12.84 c0 -0.1 0.06 -0.18 0.16 -0.18 l2.28 0 z M186.601 19.4 l0 0.58 l-0.64 -0.62 l0 -0.58 z M186.421 20.88 l-0.06 0 l-0.64 -0.66 c0.12 -0.06 0.22 -0.16 0.24 -0.32 l0.64 0.62 l0 0.18 c0 0.1 -0.08 0.18 -0.18 0.18 z M185.201 20.26 l0.6 0.62 l-0.56 0 l-0.62 -0.62 l0.58 0 z M184.701 20.88 l-0.58 0 l-0.62 -0.62 l0.56 0 z M181.461 8.1 l0 -0.54 l0.64 0.62 l0 0.54 z M182.101 9.3 l0 0.56 l-0.64 -0.64 l0 -0.54 z M181.461 10.36 l0 -0.56 l0.64 0.62 l0 0.56 z M181.461 11.48 l0 -0.56 l0.64 0.6 l0 0.58 z M181.461 12.6 l0 -0.54 l0.64 0.6 l0 0.56 z M186.601 18.5 l0 0.36 l-0.64 -0.64 l0 -0.4 l0.58 0.58 c0.02 0.02 0.06 0.06 0.06 0.1 z M181.461 13.719999999999999 l0 -0.56 l0.64 0.62 l0 0.58 z M181.461 14.86 l0 -0.58 l0.64 0.62 l0 0.58 z M181.461 15.98 l0 -0.58 l0.64 0.62 l0 0.56 z M181.461 17.1 l0 -0.58 l0.64 0.64 l0 0.06 l-0.5 0 z M182.401 20.26 l0.54 0 l0.62 0.62 l-0.56 0 z M181.261 20.26 l0.56 0 l0.62 0.62 l-0.58 0 z M180.141 20.26 l0.56 0 l0.62 0.62 l-0.58 0 z M179.561 20.26 l0.64 0.62 l-0.56 0 l-0.62 -0.62 l0.54 0 z"></path></g>
			</g>
		</svg>
	